<svg xmlns="http://www.w3.org/2000/svg" xmlns:xlink="http://www.w3.org/1999/xlink"><symbol viewBox="0 0 24 24" id="account" xmlns="http://www.w3.org/2000/svg"><path d="M12 2c2.757 0 5 2.243 5 5.001 0 2.756-2.243 5-5 5s-5-2.244-5-5A5.006 5.006 0 0 1 12 2zm0-2a7 7 0 1 0 0 14 7 7 0 0 0 0-14zm6.369 13.353a9.057 9.057 0 0 1-1.658 1.302c2.872 1.874 4.378 5.083 4.972 7.346H2.296c.572-2.29 2.058-5.503 4.973-7.358a9.008 9.008 0 0 1-1.658-1.312C1.353 16.403 0 21.837 0 24h24c0-2.142-1.44-7.557-5.631-10.647z"/></symbol><symbol viewBox="0 0 7 12" id="arrow" xmlns="http://www.w3.org/2000/svg"><path d="M7 6c0 .215-.084.43-.251.593l-5.28 5.16a.874.874 0 0 1-1.217 0 .827.827 0 0 1 0-1.188L4.924 6 .253 1.434a.827.827 0 0 1 0-1.188.874.874 0 0 1 1.216 0l5.28 5.16c.168.163.251.38.251.594" fill="currentColor" fill-rule="evenodd"/></symbol><symbol viewBox="0 0 31.6 22.5" id="bars" xmlns="http://www.w3.org/2000/svg"><path fill="currentColor" d="M0 10h31.6v2.5H0zm0 10h31.6v2.5H0zM0 0h31.6v2.5H0z"/></symbol><symbol viewBox="0 0 512 512" id="cart-icon" xmlns="http://www.w3.org/2000/svg"><g fill="currentColor"><path d="M6.6 47.9C2 51 0 54.8 0 61c0 6.2 2 10 6.6 13.1 2.7 1.8 5.3 1.9 37.6 1.9h34.7l1.5 5.2c.9 2.9 17.1 61.3 36.1 129.8 18.9 68.5 35.2 126 36.2 127.8.9 1.8 3.1 4.1 4.8 5.2 3.2 2 5.5 2 143.5 2s140.3 0 143.5-2c1.7-1.1 3.9-3.4 4.9-5.2.9-1.8 15.4-50.6 32.1-108.4 21.5-74.1 30.5-106.6 30.5-110 0-5.3-2-9.3-6.1-12.2-2.2-1.6-16-1.7-194.4-2.2l-192-.5-7.1-25.7c-3.9-14.1-7.9-26.6-8.7-27.8-.9-1.3-2.9-3.1-4.4-4.1C96.7 46.1 93.6 46 53 46c-40.9 0-43.7.1-46.4 1.9zM476 136.7c0 .5-11.6 40.8-25.9 89.8l-25.8 89-123.1.3-123.1.2-1.5-5.2c-.9-2.9-11.9-42.7-24.6-88.3-12.7-45.7-23.3-83.8-23.6-84.8-.5-1.6 8.2-1.7 173.5-1.7 95.8 0 174.1.3 174.1.7z"/><path d="M187.6 197.9c-4.6 3.1-6.6 6.9-6.6 13.1 0 6.2 2 10 6.6 13.1 2.8 1.8 6.8 1.9 113.4 1.9 106.6 0 110.6-.1 113.4-1.9 4.6-3.1 6.6-6.9 6.6-13.1 0-6.2-2-10-6.6-13.1-2.8-1.8-6.8-1.9-113.4-1.9-106.6 0-110.6.1-113.4 1.9zM217.6 257.9c-4.6 3.1-6.6 6.9-6.6 13.1 0 6.2 2 10 6.6 13.1 2.8 1.8 6.2 1.9 83.4 1.9s80.6-.1 83.4-1.9c4.6-3.1 6.6-6.9 6.6-13.1 0-6.2-2-10-6.6-13.1-2.8-1.8-6.2-1.9-83.4-1.9s-80.6.1-83.4 1.9zM196.1 377.9c-12 4.5-20.7 12.4-26.4 24-3.1 6.4-3.2 7.1-3.2 19.1 0 12 .1 12.7 3.2 19.1 5.8 11.8 14.6 19.7 26.9 24 4.9 1.7 7.7 2 16.4 1.7 9.5-.3 11.2-.7 17.5-3.8 9.2-4.4 17.1-12.3 21.6-21.5 3.3-6.8 3.4-7.3 3.4-19.5s-.1-12.7-3.4-19.5c-4.5-9.2-12.4-17.1-21.6-21.5-6.5-3.2-7.9-3.5-18-3.7-9-.3-12 0-16.4 1.6zm22.3 31c4.3 2.9 6.6 7 6.6 12.1 0 8-6 14-14 14s-14-6-14-14 6-14 14-14c2.7 0 5.6.8 7.4 1.9zM376.1 377.9c-12 4.5-20.7 12.4-26.4 24-3.1 6.4-3.2 7.1-3.2 19.1 0 12 .1 12.7 3.2 19.1 5.8 11.8 14.6 19.7 26.9 24 4.9 1.7 7.7 2 16.4 1.7 9.5-.3 11.2-.7 17.5-3.8 9.2-4.4 17.1-12.3 21.6-21.5 3.3-6.8 3.4-7.3 3.4-19.5s-.1-12.7-3.4-19.5c-4.5-9.2-12.4-17.1-21.6-21.5-6.5-3.2-7.9-3.5-18-3.7-9-.3-12 0-16.4 1.6zm22.3 31c4.3 2.9 6.6 7 6.6 12.1 0 8-6 14-14 14s-14-6-14-14 6-14 14-14c2.7 0 5.6.8 7.4 1.9z"/></g></symbol><symbol viewBox="0 0 24.1 24.1" style="enable-background:new 0 0 24.1 24.1" xml:space="preserve" id="close" xmlns="http://www.w3.org/2000/svg"><path fill="currentColor" d="M.022 1.816 1.789.048l22.345 22.344-1.768 1.768z"/><path fill="currentColor" d="M.022 22.321 22.366-.023l1.768 1.768L1.789 24.089z"/></symbol><symbol viewBox="0 0 60 60" id="close-bubble" xmlns="http://www.w3.org/2000/svg"><g transform="translate(3 3)" fill="none" fill-rule="evenodd"><circle stroke="currentColor" stroke-width="5" cx="27" cy="27" r="27"/><path fill="currentColor" d="M32.92 18 27 23.92 21.08 18 18 21.08 23.92 27 18 32.92 21.08 36 27 30.08 32.92 36 36 32.92 30.08 27 36 21.08z"/></g></symbol><symbol viewBox="0 0 35 35" id="custom-menu" xmlns="http://www.w3.org/2000/svg"><defs><filter x="-79.7%" y="-532.4%" width="259.4%" height="1164.7%" filterUnits="objectBoundingBox" id="ga"><feOffset in="SourceAlpha" result="shadowOffsetOuter1"/><feGaussianBlur stdDeviation="5" in="shadowOffsetOuter1" result="shadowBlurOuter1"/><feColorMatrix values="0 0 0 0 0 0 0 0 0 0.49256993 0 0 0 0 1 0 0 0 1 0" in="shadowBlurOuter1"/></filter><filter x="-79.7%" y="-532.4%" width="259.4%" height="1164.7%" filterUnits="objectBoundingBox" id="gc"><feOffset in="SourceAlpha" result="shadowOffsetOuter1"/><feGaussianBlur stdDeviation="5" in="shadowOffsetOuter1" result="shadowBlurOuter1"/><feColorMatrix values="0 0 0 0 0 0 0 0 0 0.494117647 0 0 0 0 1 0 0 0 1 0" in="shadowBlurOuter1"/></filter><filter x="-78.8%" y="-500%" width="257.7%" height="1100%" filterUnits="objectBoundingBox" id="ge"><feOffset in="SourceAlpha" result="shadowOffsetOuter1"/><feGaussianBlur stdDeviation="5" in="shadowOffsetOuter1" result="shadowBlurOuter1"/><feColorMatrix values="0 0 0 0 0 0 0 0 0 0.494117647 0 0 0 0 1 0 0 0 1 0" in="shadowBlurOuter1"/></filter><path d="m10.301 7.616 4.526.011a7.22 7.22 0 0 1 4.26 1.403.77.77 0 0 1-.46 1.392l-12.119-.029A.772.772 0 0 1 6.054 9a7.16 7.16 0 0 1 4.247-1.383Z" id="gb"/><path d="m3.18 7.587 4.526-.01a7.147 7.147 0 0 1 4.242 1.383.772.772 0 0 1-.454 1.394l-12.12.028a.77.77 0 0 1-.458-1.392A7.233 7.233 0 0 1 3.18 7.587Z" id="gd"/><path d="M6.575.857h4.46c1.577 0 3.108.528 4.35 1.5a.84.84 0 0 1-.517 1.5H2.738a.839.839 0 0 1-.517-1.5 7.072 7.072 0 0 1 4.354-1.5Z" id="gf"/></defs><g fill="none" fill-rule="evenodd"><g transform="rotate(-80 23.079 7.935)"><use fill="#000" filter="url(#ga)" xlink:href="#gb"/><use fill="#FFF" xlink:href="#gb"/></g><g transform="rotate(40 -5.832 28.895)"><use fill="#000" filter="url(#gc)" xlink:href="#gd"/><use fill="#FFF" xlink:href="#gd"/></g><g transform="rotate(160 11.668 8.607)"><use fill="#000" filter="url(#ge)" xlink:href="#gf"/><use fill="#FFF" xlink:href="#gf"/></g></g></symbol><symbol viewBox="0 0 264 88" id="default-skin" xmlns="http://www.w3.org/2000/svg"><g fill="none" fill-rule="evenodd"><path d="M67.002 59.5v3.768c-6.307.84-9.184 5.75-10.002 9.732 2.22-2.83 5.564-5.098 10.002-5.098V71.5L73 65.585 67.002 59.5zM13 29v-5h2v3h3v2h-5zm0-14h5v2h-3v3h-2v-5zm18 0v5h-2v-3h-3v-2h5zm0 14h-5v-2h3v-3h2v5zM62 24v5h-2v-3h-3v-2h5zm0-4h-5v-2h3v-3h2v5zm8 0v-5h2v3h3v2h-5zm0 4h5v2h-3v3h-2v-5zM20.586 66l-5.656-5.656 1.414-1.414L22 64.586l5.656-5.656 1.414 1.414L23.414 66l5.656 5.656-1.414 1.414L22 67.414l-5.656 5.656-1.414-1.414L20.586 66zM111.785 65.03 110 63.5l3-3.5h-10v-2h10l-3-3.5 1.785-1.468L117 59l-5.215 6.03zM152.215 65.03 154 63.5l-3-3.5h10v-2h-10l3-3.5-1.785-1.468L147 59l5.215 6.03zM160.957 28.543l-3.25-3.25-1.413 1.414 3.25 3.25z" fill="#fff"/><path d="M152.5 27a5.5 5.5 0 1 0 0-11 5.5 5.5 0 1 0 0 11z" stroke="#fff" stroke-width="1.5"/><path fill="#fff" d="M150 21h5v1h-5zM116.957 28.543l-1.414 1.414-3.25-3.25 1.414-1.414 3.25 3.25z"/><path d="M108.5 27a5.5 5.5 0 1 0 0-11 5.5 5.5 0 1 0 0 11z" stroke="#fff" stroke-width="1.5"/><path fill="#fff" d="M106 21h5v1h-5z"/><path fill="#fff" d="m109.043 19.008-.085 5-1-.017.085-5z"/></g></symbol><symbol viewBox="0 0 5.747 11.378" id="facebook" xmlns="http://www.w3.org/2000/svg"><path fill="currentColor" d="M4.197 2.098c-.256 0-.415.039-.476.119s-.091.244-.091.491v.639h1.619c.069 0 .138.034.211.104.049.047.072.118.072.211l-.123 1.486a.234.234 0 0 1-.08.187.288.288 0 0 1-.197.068H3.63v5.692a.272.272 0 0 1-.083.201.269.269 0 0 1-.201.082H1.473a.264.264 0 0 1-.199-.082.269.269 0 0 1-.083-.201V5.403H.283a.27.27 0 0 1-.2-.083.277.277 0 0 1-.083-.2V3.646c0-.077.028-.147.083-.208s.123-.091.2-.091h.908v-.74C1.191.874 2.077.003 3.848 0c.596 0 1.157.076 1.685.226.16.049.23.151.211.312l-.196 1.445a.348.348 0 0 1-.115.189.277.277 0 0 1-.225.043 4.651 4.651 0 0 0-1.011-.117"/></symbol><symbol viewBox="0 0 268.678 229.286" id="icon-logo" xmlns="http://www.w3.org/2000/svg"><defs><path id="ja" d="M48.008 10.475h218.22v181.559H48.008z"/></defs><text xml:space="preserve" style="font-style:normal;font-weight:400;font-size:144px;line-height:1.25;font-family:sans-serif;white-space:pre;shape-inside:url(#ja);fill:#fff;fill-opacity:1;stroke:none" transform="matrix(1.86769 0 0 2.04136 -101.766 -63.221)"><tspan x="48.008" y="141.85"><tspan style="font-family:'Libre Baskerville';-inkscape-font-specification:'Libre Baskerville'">M</tspan></tspan></text></symbol><symbol viewBox="0 0 12.769 13.12" id="instagram" xmlns="http://www.w3.org/2000/svg"><path fill="currentColor" d="M9.054 12.139c.726 0 1.411-.286 1.93-.804a2.715 2.715 0 0 0 .804-1.93v-5.69c0-.726-.286-1.411-.804-1.93a2.718 2.718 0 0 0-1.93-.803h-5.34a2.71 2.71 0 0 0-1.929.803 2.717 2.717 0 0 0-.804 1.93v5.69c0 .726.285 1.411.804 1.93a2.713 2.713 0 0 0 1.929.804h5.34zm0 .981h-5.34A3.725 3.725 0 0 1 0 9.405v-5.69A3.725 3.725 0 0 1 3.714 0h5.34a3.726 3.726 0 0 1 3.715 3.715v5.69a3.726 3.726 0 0 1-3.715 3.715"/><path fill="currentColor" d="M6.386 4.21a2.302 2.302 0 1 0 0 4.604 2.302 2.302 0 0 0 0-4.604m3.534 2.3a3.516 3.516 0 1 1-7.034 0 3.517 3.517 0 1 1 7.034 0m.889-3.571a.832.832 0 1 1-1.664 0 .832.832 0 0 1 1.664 0"/></symbol><symbol viewBox="0 0 12.004 11.508" id="linkedin" xmlns="http://www.w3.org/2000/svg"><path fill="currentColor" d="M1.448 0c.197 0 .385.039.562.114.18.076.334.177.47.301.134.126.237.273.312.445a1.375 1.375 0 0 1 0 1.083 1.314 1.314 0 0 1-.312.439c-.136.125-.29.226-.47.302a1.408 1.408 0 0 1-.562.114c-.199 0-.385-.038-.562-.114a1.49 1.49 0 0 1-.768-.741A1.261 1.261 0 0 1 0 1.404c0-.191.039-.373.118-.544C.197.688.301.541.43.415.559.291.714.19.886.114 1.063.039 1.249 0 1.448 0m1.081 3.629c.081 0 .151.028.215.087.063.06.097.129.097.213v7.277a.285.285 0 0 1-.097.21.296.296 0 0 1-.215.092H.388a.305.305 0 0 1-.216-.092.292.292 0 0 1-.096-.21V3.929c0-.077.034-.147.096-.21a.314.314 0 0 1 .216-.09h2.141zm6.293-.185c.965 0 1.733.233 2.313.701.58.469.869 1.186.869 2.154v4.906a.292.292 0 0 1-.096.21.3.3 0 0 1-.217.092H9.492a.281.281 0 0 1-.211-.092.297.297 0 0 1-.086-.21V6.771c0-.372-.07-.656-.209-.854-.142-.193-.423-.293-.85-.293-.27 0-.495.043-.678.13a1.081 1.081 0 0 0-.43.344 1.306 1.306 0 0 0-.216.519c-.042.2-.062.416-.062.646v3.942a.284.284 0 0 1-.096.21.3.3 0 0 1-.217.092H4.298a.306.306 0 0 1-.217-.092.287.287 0 0 1-.095-.21V3.929c0-.077.031-.147.095-.21a.315.315 0 0 1 .217-.09h2.078c.168 0 .26.062.281.187.021.125.031.243.031.357.288-.262.616-.447.984-.56a3.956 3.956 0 0 1 1.15-.169"/></symbol><symbol viewBox="0 0 31.6 22.5" id="mobile-menu" xmlns="http://www.w3.org/2000/svg"><path fill="currentColor" d="M0 10h31.6v2.5H0zm0 10h31.6v2.5H0zM0 0h31.6v2.5H0z"/></symbol><symbol viewBox="0 0 54 54" xml:space="preserve" id="mute" xmlns="http://www.w3.org/2000/svg"><path d="m46.414 26 7.293-7.293a.999.999 0 1 0-1.414-1.414L45 24.586l-7.293-7.293a.999.999 0 1 0-1.414 1.414L43.586 26l-7.293 7.293a.999.999 0 1 0 1.414 1.414L45 27.414l7.293 7.293a.997.997 0 0 0 1.414 0 .999.999 0 0 0 0-1.414L46.414 26zM28.404 4.4a3.029 3.029 0 0 0-3.09.044.929.929 0 0 0-.13.093L11.634 16H1a1 1 0 0 0-1 1v19a1.002 1.002 0 0 0 1 1l10.61-.005 13.543 12.44c.05.046.104.086.161.12a3.055 3.055 0 0 0 1.582.446 3.07 3.07 0 0 0 1.508-.402A3.122 3.122 0 0 0 30 46.844V7.156A3.125 3.125 0 0 0 28.404 4.4zM28 46.844c0 .431-.217.81-.579 1.015a1.049 1.049 0 0 1-1 .026L13 35.556V31a1 1 0 1 0-2 0v3.996L2 35V18h9v4a1 1 0 1 0 2 0v-4.536l13.405-11.34c.46-.242.86-.07 1.016.018.362.205.579.583.579 1.014v39.688z"/></symbol><symbol viewBox="0 0 60 60" xml:space="preserve" id="pause" xmlns="http://www.w3.org/2000/svg"><path d="M30 0C13.458 0 0 13.458 0 30s13.458 30 30 30 30-13.458 30-30S46.542 0 30 0zm0 58C14.561 58 2 45.439 2 30S14.561 2 30 2s28 12.561 28 28-12.561 28-28 28z"/><path d="M33 46h8V14h-8v32zm2-30h4v28h-4V16zM19 46h8V14h-8v32zm2-30h4v28h-4V16z"/></symbol><symbol viewBox="0 0 512 512" id="pinterest" xmlns="http://www.w3.org/2000/svg"><path d="M236.5 1.1c-43.4 4-82.1 17.4-112.7 38.9-12.1 8.5-34.4 30.8-43.1 43-7.6 10.8-18.2 31.4-22.5 44.1-7.1 20.2-10.9 46.4-9.9 66.9 2 40.9 22.5 83.8 50 104.6 7.2 5.5 20 11.9 22.1 11.1.8-.3 2.3-1.8 3.2-3.2 2-3.1 10.3-35.5 10.4-40.4 0-2.4-1.1-4.9-3.9-8.5-17.1-22.5-24.4-47.9-22-77.1 4.9-60.8 49.1-109.6 110.7-122.4 28.5-5.9 61.8-4.4 87.5 4 18.4 6 34.2 15.5 47 28.3C385 121.9 397.5 171.2 387 223c-8.7 42.6-33 77.5-64.2 91.9-26.3 12.2-53.5 9.9-70.3-6-12.9-12.2-16.3-26.6-11-46.9 1.3-5.2 5.8-20.3 10-33.4 9.5-30.1 12-39 14-49.5 5-27.2-2.7-47.3-21.4-55.9-7.4-3.5-21-4.2-29.7-1.7-10.5 3.1-17.4 7.3-25.9 15.9-6.2 6.2-9 10-12.2 16.6-6.6 13.3-8.7 23.5-8.7 41.5.1 16.4 2 27.8 6.8 39.6l2.5 6.1-19 76.7c-10.5 42.1-19.7 79.7-20.5 83.6-2.1 9.8-3 49.6-1.5 66.7 2 21.5 4.9 41.1 6.5 42.6.8.8 2.1 1.2 3 .9 3.8-1.5 28.4-41.5 40.1-65.2 10.5-21.3 11.9-25.5 24.6-71.9 9.8-36 10.4-37.7 11.9-35.5 7.4 11.5 23.7 22.6 41.5 28.2 12.8 4 21.7 5 38.7 4.4 30.1-1.1 55.5-9.4 81.3-26.4 14.7-9.8 34.6-30 45.2-46.1 21.8-32.8 32.9-68 34.9-110.7 2.3-48.3-14.5-92.9-48-127.4-31-31.9-69.7-51.1-118.1-58.6-12.1-1.9-47.2-2.7-61-1.4z" fill="currentColor"/></symbol><symbol viewBox="0 0 60 60" xml:space="preserve" id="play" xmlns="http://www.w3.org/2000/svg"><path d="m45.563 29.174-22-15A1 1 0 0 0 22 15v30a.999.999 0 0 0 1.563.826l22-15a1 1 0 0 0 0-1.652zM24 43.107V16.893L43.225 30 24 43.107z"/><path d="M30 0C13.458 0 0 13.458 0 30s13.458 30 30 30 30-13.458 30-30S46.542 0 30 0zm0 58C14.561 58 2 45.439 2 30S14.561 2 30 2s28 12.561 28 28-12.561 28-28 28z"/></symbol><symbol viewBox="0 0 52.026 52.026" xml:space="preserve" id="speaker" xmlns="http://www.w3.org/2000/svg"><path d="M28.404 3.413a3.029 3.029 0 0 0-3.09.044.929.929 0 0 0-.13.093l-13.55 11.463H1a1 1 0 0 0-1 1v19a1.002 1.002 0 0 0 1 1l10.61-.005 13.543 12.44c.05.046.104.086.161.12a3.055 3.055 0 0 0 1.582.446 3.07 3.07 0 0 0 1.508-.402A3.122 3.122 0 0 0 30 45.857V6.169a3.125 3.125 0 0 0-1.596-2.756zM28 45.857c0 .431-.217.81-.579 1.015a1.049 1.049 0 0 1-1 .026L13 34.569v-4.556a1 1 0 1 0-2 0v3.996l-9 .004v-17h9v4a1 1 0 1 0 2 0v-4.536l13.405-11.34c.461-.242.86-.07 1.016.018.362.205.579.584.579 1.014v39.688zM38.797 7.066a1.002 1.002 0 0 0-.643 1.895 17.48 17.48 0 0 1 11.872 16.553 17.492 17.492 0 0 1-11.849 16.554 1 1 0 0 0 .646 1.893 19.489 19.489 0 0 0 13.202-18.446A19.478 19.478 0 0 0 38.797 7.066z"/><path d="M43.026 25.513c0-5.972-4.009-11.302-9.749-12.962a1 1 0 0 0-.554 1.922c4.889 1.413 8.304 5.953 8.304 11.04s-3.415 9.627-8.304 11.04a1 1 0 0 0 .554 1.922c5.741-1.66 9.749-6.99 9.749-12.962z"/></symbol><symbol viewBox="0 0 12.195 9.792" id="twitter" xmlns="http://www.w3.org/2000/svg"><path fill="currentColor" d="M12.195 1.158a5.08 5.08 0 0 1-1.438.39A2.49 2.49 0 0 0 11.858.182a5.11 5.11 0 0 1-1.589.599A2.513 2.513 0 0 0 8.443 0C7.062 0 5.941 1.107 5.941 2.473c0 .192.022.382.064.563A7.125 7.125 0 0 1 .85.453c-.217.365-.34.79-.34 1.243a2.46 2.46 0 0 0 1.113 2.057A2.517 2.517 0 0 1 .49 3.444v.031a2.48 2.48 0 0 0 2.006 2.424 2.555 2.555 0 0 1-1.129.042 2.5 2.5 0 0 0 2.337 1.717A5.058 5.058 0 0 1 0 8.682a7.137 7.137 0 0 0 3.835 1.11c4.602 0 7.118-3.766 7.118-7.032 0-.107-.003-.215-.007-.32.489-.35.914-.786 1.249-1.282"/></symbol><symbol viewBox="0 0 512 512" id="vimeo" xmlns="http://www.w3.org/2000/svg"><path d="M411.6 34.6c-4.4.8-12.6 3-18.2 4.9-50 16.7-86.2 55.8-98 105.9-.8 3.2-1.3 6.1-1 6.3.2.2 2.7-.7 5.5-2.1 18.2-9.3 33.5-10.7 46.1-4.4 17.1 8.5 23.2 31.6 15.5 58.3-6.2 21.3-39.7 76.7-58.8 97.1-14 14.9-21.2 17.8-28 11-7.8-7.8-16.1-29.9-27.7-74.1-8.1-30.9-10.1-40.3-17.5-83-8.4-48.3-13.3-67-22.6-86.1-12.2-24.8-29.2-35.3-51.1-31.5-28.9 5-65 27.7-107.9 67.7C33.5 118 5.3 147.2 1.5 152.7c-1.1 1.6-.1 3.4 8.2 14.3 5.2 6.9 9.8 12.9 10.3 13.3.4.5 4.3-1.5 8.6-4.3 20.4-13.8 37.8-19.1 46.1-14 7.4 4.4 14.8 25.2 53.2 149 33.9 109.4 37.1 117.5 54.4 137.9 11.4 13.4 28.6 24.9 42.7 28.6 6.6 1.8 20.3 1.9 26.8.4 18.9-4.5 57.1-33.3 100.5-75.8 45.5-44.7 80.6-88.8 109-137.4 20.7-35.2 34.9-69.5 43.7-105.2 8.3-33.7 9-55.4 2.5-77C500.7 59.9 483 43 459 35.9c-9.9-2.8-35.5-3.6-47.4-1.3z" fill="currentColor"/></symbol><symbol viewBox="0 0 512 512" id="youtube" xmlns="http://www.w3.org/2000/svg"><g fill="currentColor"><path d="M211.5 72.6c-85.8 2.8-124.1 5.6-144 10.5-15.4 3.7-27.9 11.2-39.1 23.2-11.8 12.7-17.1 23.6-21 42.6-9.9 48.8-9.9 167.5 0 216.4 3.9 18.9 9.4 30.1 21 42.4C40 420 54.1 428 70.9 431.5c34.6 7.3 153.6 12.1 236.6 9.6 81.2-2.4 122.6-5.7 141-11.2 24.6-7.3 44.1-26.1 52.5-50.5 12.8-37.1 15-172.4 3.8-229.4-4-20.4-11.5-34.9-24.5-47.1-11.4-10.7-23.9-17.2-39.2-20.4-16.8-3.5-53.2-6.6-98.6-8.5-25.4-1.1-112.8-2-131-1.4zm98 40.4c79.1 2.4 119.8 5.9 132.3 11.6 10.1 4.5 17.4 12.1 20.8 21.6 2.7 7.4 5.3 22.9 7.1 41.9 2.2 23.5 2.5 105.6.5 130.4-2.4 28.8-5.3 45.9-9.3 53.7-5 9.9-15.2 17.5-27 20.2-28 6.5-147.8 11-227.4 8.7-64.4-1.9-109.1-4.9-126.8-8.7-18.3-3.8-29.2-15.2-33.1-34.9-8.8-44-8.8-157 0-201 2.1-10.7 5.7-17.9 11.8-24.1 9.6-9.5 18.4-12 50.8-14.8C163 113 245 111.1 309.5 113z"/><path d="M205 257.1v81.1l2.3-1.4c1.2-.8 32.5-18.9 69.5-40.3s67.1-39.3 67-39.7c-.2-.4-29.5-17.6-65.3-38.3-35.7-20.7-66.9-38.7-69.2-40.1l-4.3-2.5v81.2z"/></g></symbol></svg>