<svg xmlns="http://www.w3.org/2000/svg" width="5.747" height="11.378" viewBox="0 0 5.747 11.378"><path fill="currentColor" d="M4.197 2.098c-.256 0-.415.039-.476.119s-.091.244-.091.491v.639h1.619c.069 0 .138.034.211.104.049.047.072.118.072.211l-.123 1.486a.234.234 0 0 1-.08.187.288.288 0 0 1-.197.068H3.63v5.692a.272.272 0 0 1-.083.201.269.269 0 0 1-.201.082H1.473a.264.264 0 0 1-.199-.082.269.269 0 0 1-.083-.201V5.403H.283a.27.27 0 0 1-.2-.083.277.277 0 0 1-.083-.2V3.646c0-.077.028-.147.083-.208s.123-.091.2-.091h.908v-.74C1.191.874 2.077.003 3.848 0c.596 0 1.157.076 1.685.226.16.049.23.151.211.312l-.196 1.445a.348.348 0 0 1-.115.189.277.277 0 0 1-.225.043 4.651 4.651 0 0 0-1.011-.117"/></svg>