<svg xmlns="http://www.w3.org/2000/svg" width="12.769" height="13.12" viewBox="0 0 12.769 13.12"><path fill="currentColor" d="M9.054 12.139c.726 0 1.411-.286 1.93-.804a2.715 2.715 0 0 0 .804-1.93v-5.69c0-.726-.286-1.411-.804-1.93a2.718 2.718 0 0 0-1.93-.803h-5.34a2.71 2.71 0 0 0-1.929.803 2.717 2.717 0 0 0-.804 1.93v5.69c0 .726.285 1.411.804 1.93a2.713 2.713 0 0 0 1.929.804h5.34zm0 .981h-5.34A3.725 3.725 0 0 1 0 9.405v-5.69A3.725 3.725 0 0 1 3.714 0h5.34a3.726 3.726 0 0 1 3.715 3.715v5.69a3.726 3.726 0 0 1-3.715 3.715"/><path fill="currentColor" d="M6.386 4.21a2.302 2.302 0 1 0 0 4.604 2.302 2.302 0 0 0 0-4.604m3.534 2.3a3.516 3.516 0 1 1-7.034 0 3.517 3.517 0 1 1 7.034 0m.889-3.571a.832.832 0 1 1-1.664 0 .832.832 0 0 1 1.664 0"/></svg>