<svg xmlns="http://www.w3.org/2000/svg" width="12.004" height="11.508" viewBox="0 0 12.004 11.508"><path fill="currentColor" d="M1.448 0c.197 0 .385.039.562.114.18.076.334.177.47.301.134.126.237.273.312.445a1.375 1.375 0 0 1 0 1.083 1.314 1.314 0 0 1-.312.439c-.136.125-.29.226-.47.302a1.408 1.408 0 0 1-.562.114c-.199 0-.385-.038-.562-.114a1.49 1.49 0 0 1-.768-.741A1.261 1.261 0 0 1 0 1.404c0-.191.039-.373.118-.544C.197.688.301.541.43.415.559.291.714.19.886.114 1.063.039 1.249 0 1.448 0m1.081 3.629c.081 0 .151.028.215.087.063.06.097.129.097.213v7.277a.285.285 0 0 1-.097.21.296.296 0 0 1-.215.092H.388a.305.305 0 0 1-.216-.092.292.292 0 0 1-.096-.21V3.929c0-.077.034-.147.096-.21a.314.314 0 0 1 .216-.09h2.141zm6.293-.185c.965 0 1.733.233 2.313.701.58.469.869 1.186.869 2.154v4.906a.292.292 0 0 1-.096.21.3.3 0 0 1-.217.092H9.492a.281.281 0 0 1-.211-.092.297.297 0 0 1-.086-.21V6.771c0-.372-.07-.656-.209-.854-.142-.193-.423-.293-.85-.293-.27 0-.495.043-.678.13a1.081 1.081 0 0 0-.43.344 1.306 1.306 0 0 0-.216.519c-.042.2-.062.416-.062.646v3.942a.284.284 0 0 1-.096.21.3.3 0 0 1-.217.092H4.298a.306.306 0 0 1-.217-.092.287.287 0 0 1-.095-.21V3.929c0-.077.031-.147.095-.21a.315.315 0 0 1 .217-.09h2.078c.168 0 .26.062.281.187.021.125.031.243.031.357.288-.262.616-.447.984-.56a3.956 3.956 0 0 1 1.15-.169"/></svg>