<svg version="1.0" xmlns="http://www.w3.org/2000/svg" width="682.667" height="682.667" viewBox="0 0 512 512"><path d="M236.5 1.1c-43.4 4-82.1 17.4-112.7 38.9-12.1 8.5-34.4 30.8-43.1 43-7.6 10.8-18.2 31.4-22.5 44.1-7.1 20.2-10.9 46.4-9.9 66.9 2 40.9 22.5 83.8 50 104.6 7.2 5.5 20 11.9 22.1 11.1.8-.3 2.3-1.8 3.2-3.2 2-3.1 10.3-35.5 10.4-40.4 0-2.4-1.1-4.9-3.9-8.5-17.1-22.5-24.4-47.9-22-77.1 4.9-60.8 49.1-109.6 110.7-122.4 28.5-5.9 61.8-4.4 87.5 4 18.4 6 34.2 15.5 47 28.3C385 121.9 397.5 171.2 387 223c-8.7 42.6-33 77.5-64.2 91.9-26.3 12.2-53.5 9.9-70.3-6-12.9-12.2-16.3-26.6-11-46.9 1.3-5.2 5.8-20.3 10-33.4 9.5-30.1 12-39 14-49.5 5-27.2-2.7-47.3-21.4-55.9-7.4-3.5-21-4.2-29.7-1.7-10.5 3.1-17.4 7.3-25.9 15.9-6.2 6.2-9 10-12.2 16.6-6.6 13.3-8.7 23.5-8.7 41.5.1 16.4 2 27.8 6.8 39.6l2.5 6.1-19 76.7c-10.5 42.1-19.7 79.7-20.5 83.6-2.1 9.8-3 49.6-1.5 66.7 2 21.5 4.9 41.1 6.5 42.6.8.8 2.1 1.2 3 .9 3.8-1.5 28.4-41.5 40.1-65.2 10.5-21.3 11.9-25.5 24.6-71.9 9.8-36 10.4-37.7 11.9-35.5 7.4 11.5 23.7 22.6 41.5 28.2 12.8 4 21.7 5 38.7 4.4 30.1-1.1 55.5-9.4 81.3-26.4 14.7-9.8 34.6-30 45.2-46.1 21.8-32.8 32.9-68 34.9-110.7 2.3-48.3-14.5-92.9-48-127.4-31-31.9-69.7-51.1-118.1-58.6-12.1-1.9-47.2-2.7-61-1.4z" fill="currentColor"/></svg>