<svg xmlns="http://www.w3.org/2000/svg" width="12.195" height="9.792" viewBox="0 0 12.195 9.792"><path fill="currentColor" d="M12.195 1.158a5.08 5.08 0 0 1-1.438.39A2.49 2.49 0 0 0 11.858.182a5.11 5.11 0 0 1-1.589.599A2.513 2.513 0 0 0 8.443 0C7.062 0 5.941 1.107 5.941 2.473c0 .192.022.382.064.563A7.125 7.125 0 0 1 .85.453c-.217.365-.34.79-.34 1.243a2.46 2.46 0 0 0 1.113 2.057A2.517 2.517 0 0 1 .49 3.444v.031a2.48 2.48 0 0 0 2.006 2.424 2.555 2.555 0 0 1-1.129.042 2.5 2.5 0 0 0 2.337 1.717A5.058 5.058 0 0 1 0 8.682a7.137 7.137 0 0 0 3.835 1.11c4.602 0 7.118-3.766 7.118-7.032 0-.107-.003-.215-.007-.32.489-.35.914-.786 1.249-1.282"/></svg>