<svg version="1.0" xmlns="http://www.w3.org/2000/svg" width="682.667" height="682.667" viewBox="0 0 512 512"><path d="M411.6 34.6c-4.4.8-12.6 3-18.2 4.9-50 16.7-86.2 55.8-98 105.9-.8 3.2-1.3 6.1-1 6.3.2.2 2.7-.7 5.5-2.1 18.2-9.3 33.5-10.7 46.1-4.4 17.1 8.5 23.2 31.6 15.5 58.3-6.2 21.3-39.7 76.7-58.8 97.1-14 14.9-21.2 17.8-28 11-7.8-7.8-16.1-29.9-27.7-74.1-8.1-30.9-10.1-40.3-17.5-83-8.4-48.3-13.3-67-22.6-86.1-12.2-24.8-29.2-35.3-51.1-31.5-28.9 5-65 27.7-107.9 67.7C33.5 118 5.3 147.2 1.5 152.7c-1.1 1.6-.1 3.4 8.2 14.3 5.2 6.9 9.8 12.9 10.3 13.3.4.5 4.3-1.5 8.6-4.3 20.4-13.8 37.8-19.1 46.1-14 7.4 4.4 14.8 25.2 53.2 149 33.9 109.4 37.1 117.5 54.4 137.9 11.4 13.4 28.6 24.9 42.7 28.6 6.6 1.8 20.3 1.9 26.8.4 18.9-4.5 57.1-33.3 100.5-75.8 45.5-44.7 80.6-88.8 109-137.4 20.7-35.2 34.9-69.5 43.7-105.2 8.3-33.7 9-55.4 2.5-77C500.7 59.9 483 43 459 35.9c-9.9-2.8-35.5-3.6-47.4-1.3z" fill="currentColor"/></svg>